<svg width="86" height="63" viewBox="0 0 86 63" fill="none" xmlns="http://www.w3.org/2000/svg">
<path d="M1.29858 1.31728C17.9786 1.44728 34.6786 0.917284 51.3286 1.99728C58.5086 3.16728 61.5186 5.12728 65.7786 9.10728C72.6686 15.8073 75.1586 26.2173 74.3486 35.4173C73.8786 42.5573 70.4386 50.4173 64.2886 55.1373C60.6786 57.8773 56.5486 59.5773 51.1786 60.5173C41.1386 61.8473 30.9786 61.2673 20.8786 61.4573C14.3486 61.4573 7.82858 61.4673 1.29858 61.6073V1.31728Z" stroke="white" stroke-width="2.5971" stroke-linejoin="round"/>
<path d="M84.5409 31.4429C84.5409 32.6608 84.0744 33.8288 83.244 34.6901C82.4135 35.5513 81.2872 36.0351 80.1128 36.0351C78.9384 36.0351 77.8121 35.5513 76.9817 34.6901C76.1513 33.8288 75.6848 32.6608 75.6848 31.4429C75.6848 30.225 76.1513 29.0569 76.9817 28.1956C77.8121 27.3344 78.9384 26.8506 80.1128 26.8506C81.2872 26.8506 82.4135 27.3344 83.244 28.1956C84.0744 29.0569 84.5409 30.225 84.5409 31.4429Z" stroke="white" stroke-width="2.5971" stroke-linejoin="round"/>
</svg>
