<svg width="84" height="68" viewBox="0 0 84 68" fill="none" xmlns="http://www.w3.org/2000/svg">
<path d="M2.25195 1.29999C9.51195 13.88 11.292 23.39 11.292 33.79C11.292 46.34 8.14195 56.1 2.25195 66.3C25.042 66.3 59.952 55.44 72.722 34.47C59.822 14.97 24.672 1.29999 2.25195 1.29999Z" stroke="white" stroke-width="2.6"/>
<path d="M82.1645 34.4856C82.1645 35.7035 81.6979 36.8716 80.8675 37.7328C80.0371 38.594 78.9108 39.0778 77.7364 39.0778C76.562 39.0778 75.4357 38.594 74.6052 37.7328C73.7748 36.8716 73.3083 35.7035 73.3083 34.4856C73.3083 33.2677 73.7748 32.0996 74.6052 31.2384C75.4357 30.3772 76.562 29.8934 77.7364 29.8934C78.9108 29.8934 80.0371 30.3772 80.8675 31.2384C81.6979 32.0996 82.1645 33.2677 82.1645 34.4856Z" stroke="white" stroke-width="2.5971" stroke-linejoin="round"/>
</svg>
