<svg width="91" height="68" viewBox="0 0 91 68" fill="none" xmlns="http://www.w3.org/2000/svg">
<path d="M9.82031 1.29999C17.0803 13.87 18.8603 23.38 18.8603 33.79C18.8603 46.34 15.7103 56.09 9.82031 66.3C32.6103 66.3 67.5203 55.43 80.2903 34.46C67.3903 14.96 32.2403 1.29999 9.82031 1.29999Z" stroke="white" stroke-width="2.6"/>
<path d="M1.30029 1.32001C8.56029 13.89 10.3403 23.4 10.3403 33.8C10.3403 46.36 7.19029 56.11 1.30029 66.32" stroke="white" stroke-width="2.6" stroke-linecap="round" stroke-linejoin="round"/>
<path d="M89.7026 34.2556C89.7026 35.4736 89.236 36.6416 88.4056 37.5028C87.5752 38.364 86.4488 38.8478 85.2745 38.8478C84.1001 38.8478 82.9737 38.364 82.1433 37.5028C81.3129 36.6416 80.8464 35.4736 80.8464 34.2556C80.8464 33.0377 81.3129 31.8696 82.1433 31.0084C82.9737 30.1472 84.1001 29.6634 85.2745 29.6634C86.4488 29.6634 87.5752 30.1472 88.4056 31.0084C89.236 31.8696 89.7026 33.0377 89.7026 34.2556Z" stroke="white" stroke-width="2.5971" stroke-linejoin="round"/>
</svg>
